<svg id="Layer_1" enable-background="new 0 0 512 512" height="512" viewBox="0 0 512 512" width="512" xmlns="http://www.w3.org/2000/svg"><path d="m268.767 512h-133.703c-.345 0-.625-.28-.625-.625v-444.303c0-.345.28-.625.625-.625h133.704c.345 0 .625.28.625.625v444.303c-.001.345-.28.625-.626.625z" fill="#df6b57"/><path d="m182.126 512h-47.048c-.35 0-.639-.288-.639-.639v-444.276c0-.35.288-.639.639-.639h47.048c-.35 0-.639.288-.639.639v444.276c0 .351.288.639.639.639z" fill="#da387d"/><path d="m147.318 512h-134.318c-7.18 0-13-5.82-13-13v-486c0-7.18 5.82-13 13-13h121.318c7.18 0 13 5.82 13 13z" fill="#fed22b"/><path d="m93.211 379.235h-39.104c-7.18 0-13-5.82-13-13v-301.597c0-7.18 5.82-13 13-13h39.103c7.18 0 13 5.82 13 13v301.598c.001 7.179-5.82 12.999-12.999 12.999z" fill="#f0a70a"/><path d="m377.24 512h-106.742c-7.18 0-13-5.82-13-13v-461.276c0-7.18 5.82-13 13-13h106.742c7.18 0 13 5.82 13 13v461.276c0 7.18-5.82 13-13 13z" fill="#cfb2ed"/><path d="m349.133 380.309h-50.528v-292.106c0-7.18 5.82-13 13-13h24.528c7.18 0 13 5.82 13 13z" fill="#9f66d8"/><circle cx="405.29" cy="374.42" fill="#6dc54a" r="106.71"/><path d="m450.34 358.281h-28.91v-28.845c0-8.914-7.226-16.14-16.14-16.14-8.913 0-16.139 7.226-16.139 16.14v28.845h-28.91c-8.878 0-16.074 7.197-16.074 16.074v.13c0 8.878 7.197 16.074 16.074 16.074h28.91v28.845c0 8.914 7.226 16.139 16.139 16.139 8.914 0 16.14-7.226 16.14-16.139v-28.844h28.91c8.878 0 16.075-7.197 16.075-16.074v-.13c-.001-8.879-7.198-16.075-16.075-16.075z" fill="#eee6e3"/><path d="m54.514 512h-41.122c-7.396 0-13.392-5.996-13.392-13.392v-485.216c0-7.396 5.996-13.392 13.392-13.392h41.121c-7.397 0-13.392 5.996-13.392 13.392v485.215c0 7.397 5.996 13.393 13.393 13.393z" fill="#fdc202"/><path d="m312.059 512h-41.173c-7.397 0-13.392-5.996-13.392-13.392v-460.491c0-7.397 5.996-13.392 13.392-13.392h41.173c-7.397 0-13.392 5.996-13.392 13.392v460.491c0 7.396 5.995 13.392 13.392 13.392z" fill="#bf98e6"/><path d="m423.322 479.601c-5.862 1.01-11.888 1.525-18.028 1.525-58.937 0-106.716-47.77-106.716-106.706s47.78-106.706 106.716-106.706c6.14 0 12.167.515 18.028 1.525-50.355 8.561-88.688 52.395-88.688 105.181s38.333 96.62 88.688 105.181z" fill="#5ea570"/><path d="m42.079 429.972h63.16c4.267 0 7.726-3.459 7.726-7.726s-3.459-7.726-7.726-7.726h-63.16c-4.267 0-7.726 3.459-7.726 7.726s3.459 7.726 7.726 7.726z" fill="#f0a70a"/><path d="m105.239 452.636h-63.16c-4.267 0-7.726 3.459-7.726 7.726s3.459 7.726 7.726 7.726h63.16c4.267 0 7.726-3.459 7.726-7.726s-3.459-7.726-7.726-7.726z" fill="#f0a70a"/><g fill="#c3247d"><path d="m187.387 111.517c-4.267 0-7.726 3.459-7.726 7.726v339.96c0 4.267 3.459 7.726 7.726 7.726s7.726-3.459 7.726-7.726v-339.96c.001-4.267-3.459-7.726-7.726-7.726z"/><path d="m217.51 389.666c-4.267 0-7.726 3.459-7.726 7.726v61.811c0 4.267 3.459 7.726 7.726 7.726s7.726-3.459 7.726-7.726v-61.811c0-4.267-3.459-7.726-7.726-7.726z"/><path d="m217.51 111.517c-4.267 0-7.726 3.459-7.726 7.726v247.243c0 4.267 3.459 7.726 7.726 7.726s7.726-3.459 7.726-7.726v-247.243c0-4.267-3.459-7.726-7.726-7.726z"/></g></svg>