<svg height="512" viewBox="0 0 512 512" width="512" xmlns="http://www.w3.org/2000/svg"><g><path d="m384 16h-32a8 8 0 0 0 -8-8h-32a8 8 0 0 0 -8 8h-220a28.031 28.031 0 0 0 -28 28v44h-16a8 8 0 0 0 -8 8v32a8 8 0 0 0 8 8h16v48h-16a8 8 0 0 0 -8 8v32a8 8 0 0 0 8 8h16v48h-16a8 8 0 0 0 -8 8v32a8 8 0 0 0 8 8h16v48h-16a8 8 0 0 0 -8 8v32a8 8 0 0 0 8 8h16v44a28.031 28.031 0 0 0 28 28h220a8 8 0 0 0 8 8h32a8 8 0 0 0 8-8h32a8 8 0 0 0 8-8v-464a8 8 0 0 0 -8-8zm-336 104v-16h32v16zm0 96v-16h32v16zm0 96v-16h32v16zm0 96v-16h32v16zm256 72h-220a12.01 12.01 0 0 1 -12-12v-44h16a8 8 0 0 0 8-8v-32a8 8 0 0 0 -8-8h-16v-48h16a8 8 0 0 0 8-8v-32a8 8 0 0 0 -8-8h-16v-48h16a8 8 0 0 0 8-8v-32a8 8 0 0 0 -8-8h-16v-48h16a8 8 0 0 0 8-8v-32a8 8 0 0 0 -8-8h-16v-44a12.01 12.01 0 0 1 12-12h220zm32 8h-16v-464h16zm40-8h-24v-448h24z"/><g><path d="m444 16h-8a28.031 28.031 0 0 0 -28 28v380a8.176 8.176 0 0 0 .41 2.53l24 72a8 8 0 0 0 15.18 0l24-72a8.176 8.176 0 0 0 .41-2.53v-380a28.031 28.031 0 0 0 -28-28zm-4 454.7-4.9-14.7h9.8zm10.23-30.7h-20.46l-2.67-8h25.8zm5.77-24h-32v-312h32zm0-328h-32v-8h32zm0-24h-32v-20a12.01 12.01 0 0 1 12-12h8a12.01 12.01 0 0 1 12 12z"/><path d="m440 336a8 8 0 0 0 8-8v-144a8 8 0 0 0 -16 0v144a8 8 0 0 0 8 8z"/><path d="m440 168a8 8 0 0 0 8-8v-8a8 8 0 0 0 -16 0v8a8 8 0 0 0 8 8z"/></g></g></svg>